REM DIRINDEX 1\2,1\3,1\4,1\5
REM DIRNAME folder01,folder02,folder03,folder04,folder05
TITLE ""
FILE "P1Q_t_0993-1002.mp3" MP3
  TRACK 01 AUDIO
    TITLE "3:cjc005_3884"
    INDEX 01 00:00:00
  TRACK 02 AUDIO
    TITLE "0:"
    INDEX 01 00:01:15
  TRACK 03 AUDIO
    TITLE "4:cjc005_3885"
    INDEX 01 00:01:50
  TRACK 04 AUDIO
    TITLE "0:"
    INDEX 01 00:03:39
  TRACK 05 AUDIO
    TITLE "5:cjc005_3886"
    INDEX 01 00:03:61
  TRACK 06 AUDIO
    TITLE "0:"
    INDEX 01 00:07:72
  TRACK 07 AUDIO
    TITLE "3:cjc005_3887"
    INDEX 01 00:08:44
  TRACK 08 AUDIO
    TITLE "0:"
    INDEX 01 00:09:61
  TRACK 09 AUDIO
    TITLE "4:cjc005_3888"
    INDEX 01 00:10:12
  TRACK 10 AUDIO
    TITLE "0:"
    INDEX 01 00:11:56
  TRACK 11 AUDIO
    TITLE "5:cjc005_3889"
    INDEX 01 00:12:03
  TRACK 12 AUDIO
    TITLE "0:"
    INDEX 01 00:15:70
  TRACK 13 AUDIO
    TITLE "3:cjc005_3890"
    INDEX 01 00:16:42
  TRACK 14 AUDIO
    TITLE "0:"
    INDEX 01 00:17:63
  TRACK 15 AUDIO
    TITLE "4:cjc005_3891"
    INDEX 01 00:18:19
  TRACK 16 AUDIO
    TITLE "0:"
    INDEX 01 00:20:02
  TRACK 17 AUDIO
    TITLE "5:cjc005_3892"
    INDEX 01 00:20:24
  TRACK 18 AUDIO
    TITLE "0:"
    INDEX 01 00:24:06
  TRACK 19 AUDIO
    TITLE "3:cjc005_3893"
    INDEX 01 00:24:65
  TRACK 20 AUDIO
    TITLE "0:"
    INDEX 01 00:26:34
  TRACK 21 AUDIO
    TITLE "4:cjc005_3894"
    INDEX 01 00:26:54
  TRACK 22 AUDIO
    TITLE "0:"
    INDEX 01 00:28:08
  TRACK 23 AUDIO
    TITLE "5:cjc005_3895"
    INDEX 01 00:28:35
  TRACK 24 AUDIO
    TITLE "0:"
    INDEX 01 00:32:60
  TRACK 25 AUDIO
    TITLE "3:cjc005_3896"
    INDEX 01 00:33:36
  TRACK 26 AUDIO
    TITLE "0:"
    INDEX 01 00:34:69
  TRACK 27 AUDIO
    TITLE "4:cjc005_3897"
    INDEX 01 00:35:15
  TRACK 28 AUDIO
    TITLE "0:"
    INDEX 01 00:36:27
  TRACK 29 AUDIO
    TITLE "5:cjc005_3898"
    INDEX 01 00:36:56
  TRACK 30 AUDIO
    TITLE "0:"
    INDEX 01 00:41:16
  TRACK 31 AUDIO
    TITLE "3:cjc005_3899"
    INDEX 01 00:41:67
  TRACK 32 AUDIO
    TITLE "0:"
    INDEX 01 00:43:07
  TRACK 33 AUDIO
    TITLE "4:cjc005_3900"
    INDEX 01 00:43:39
  TRACK 34 AUDIO
    TITLE "0:"
    INDEX 01 00:44:38
  TRACK 35 AUDIO
    TITLE "5:cjc005_3901"
    INDEX 01 00:44:63
  TRACK 36 AUDIO
    TITLE "0:"
    INDEX 01 00:48:40
  TRACK 37 AUDIO
    TITLE "3:cjc005_3902"
    INDEX 01 00:49:20
  TRACK 38 AUDIO
    TITLE "0:"
    INDEX 01 00:50:52
  TRACK 39 AUDIO
    TITLE "4:cjc005_3903"
    INDEX 01 00:51:07
  TRACK 40 AUDIO
    TITLE "0:"
    INDEX 01 00:52:26
  TRACK 41 AUDIO
    TITLE "5:cjc005_3904"
    INDEX 01 00:52:51
  TRACK 42 AUDIO
    TITLE "0:"
    INDEX 01 00:57:27
  TRACK 43 AUDIO
    TITLE "3:cjc005_3905"
    INDEX 01 00:58:07
  TRACK 44 AUDIO
    TITLE "0:"
    INDEX 01 00:59:30
  TRACK 45 AUDIO
    TITLE "4:cjc005_3906"
    INDEX 01 00:59:55
  TRACK 46 AUDIO
    TITLE "0:"
    INDEX 01 01:00:72
  TRACK 47 AUDIO
    TITLE "5:cjc005_3907"
    INDEX 01 01:01:17
  TRACK 48 AUDIO
    TITLE "0:"
    INDEX 01 01:04:33
  TRACK 49 AUDIO
    TITLE "3:cjc005_3908"
    INDEX 01 01:05:13
  TRACK 50 AUDIO
    TITLE "0:"
    INDEX 01 01:06:16
  TRACK 51 AUDIO
    TITLE "4:cjc005_3909"
    INDEX 01 01:06:45
  TRACK 52 AUDIO
    TITLE "0:"
    INDEX 01 01:07:57
  TRACK 53 AUDIO
    TITLE "5:cjc005_3910"
    INDEX 01 01:08:05
  TRACK 54 AUDIO
    TITLE "0:"
    INDEX 01 01:11:29
  TRACK 55 AUDIO
    TITLE "3:cjc005_3911"
    INDEX 01 01:12:11
  TRACK 56 AUDIO
    TITLE "0:"
    INDEX 01 01:13:28
  TRACK 57 AUDIO
    TITLE "4:cjc005_3912"
    INDEX 01 01:13:55
  TRACK 58 AUDIO
    TITLE "0:"
    INDEX 01 01:14:65
  TRACK 59 AUDIO
    TITLE "5:cjc005_3913"
    INDEX 01 01:15:11
  TRACK 60 AUDIO
    TITLE "0:"
    INDEX 01 01:19:32
